<?xml version="1.0" encoding="UTF-8"?>
<!-- Generator: Adobe Illustrator 16.0.4, SVG Export Plug-In . SVG Version: 6.00 Build 0)  -->
<!DOCTYPE svg PUBLIC "-//W3C//DTD SVG 1.0//EN" "http://www.w3.org/TR/2001/REC-SVG-20010904/DTD/svg10.dtd">
<svg version="1.0" id="Layer_1" xmlns="http://www.w3.org/2000/svg" xmlns:xlink="http://www.w3.org/1999/xlink" x="0px" y="0px" width="753px" height="240.5px" viewBox="0 0 753 240.5" enable-background="new 0 0 753 240.5" xml:space="preserve">
<g>
	<path fill="#4D4D4D" d="M385.678,70.903c-1.132,1.811-2.32,3.168-3.564,4.073s-2.848,1.357-4.809,1.357   c-1.736,0-3.603-0.546-5.601-1.641c-2-1.093-4.262-2.319-6.789-3.677c-2.528-1.358-5.414-2.583-8.656-3.678   c-3.244-1.093-6.94-1.641-11.088-1.641c-7.167,0-12.503,1.527-16.01,4.583c-3.507,3.055-5.261,7.185-5.261,12.389   c0,3.32,1.056,6.073,3.168,8.26c2.111,2.189,4.883,4.073,8.316,5.657c3.431,1.584,7.354,3.038,11.767,4.356   c4.413,1.32,8.919,2.792,13.521,4.413c4.6,1.623,9.108,3.526,13.521,5.714c4.413,2.188,8.334,4.979,11.767,8.372   c3.431,3.395,6.204,7.524,8.316,12.39c2.111,4.865,3.168,10.731,3.168,17.595c0,7.619-1.32,14.748-3.96,21.385   c-2.641,6.638-6.469,12.428-11.484,17.367c-5.018,4.941-11.202,8.825-18.556,11.654c-7.354,2.829-15.709,4.243-25.062,4.243   c-5.13,0-10.353-0.529-15.67-1.584c-5.318-1.056-10.466-2.546-15.444-4.47c-4.978-1.923-9.656-4.204-14.03-6.845   c-4.375-2.64-8.186-5.582-11.428-8.826l11.314-17.877c0.829-1.357,1.998-2.45,3.507-3.281c1.508-0.829,3.129-1.244,4.865-1.244   c2.263,0,4.543,0.718,6.846,2.149c2.3,1.434,4.902,3.018,7.807,4.752c2.903,1.736,6.241,3.32,10.014,4.753   c3.771,1.434,8.22,2.149,13.351,2.149c6.939,0,12.333-1.527,16.18-4.582c3.847-3.056,5.77-7.901,5.77-14.54   c0-3.847-1.057-6.976-3.168-9.391c-2.112-2.413-4.885-4.413-8.316-5.997c-3.434-1.584-7.337-2.979-11.71-4.187   c-4.375-1.205-8.864-2.546-13.464-4.017c-4.602-1.471-9.09-3.281-13.464-5.431c-4.375-2.149-8.279-4.979-11.71-8.486   c-3.433-3.507-6.205-7.881-8.316-13.125c-2.113-5.241-3.168-11.71-3.168-19.404c0-6.184,1.245-12.22,3.734-18.104   s6.147-11.125,10.975-15.727c4.826-4.601,10.749-8.277,17.764-11.032c7.015-2.753,15.048-4.13,24.1-4.13   c5.052,0,9.974,0.396,14.765,1.188c4.79,0.792,9.334,1.962,13.634,3.507c4.299,1.547,8.316,3.395,12.05,5.545   c3.734,2.149,7.071,4.582,10.013,7.298L385.678,70.903z"/>
	<path fill="#4D4D4D" d="M527.22,159.609c0.905,0,1.81,0.17,2.715,0.51c0.905,0.339,1.771,0.924,2.603,1.753l15.161,15.954   c-6.638,8.675-14.955,15.218-24.948,19.631c-9.996,4.412-21.819,6.619-35.471,6.619c-12.522,0-23.743-2.131-33.661-6.393   c-9.92-4.261-18.33-10.145-25.231-17.651c-6.902-7.505-12.202-16.406-15.897-26.702c-3.696-10.296-5.544-21.479-5.544-33.548   c0-12.294,2.111-23.591,6.336-33.887c4.224-10.297,10.126-19.179,17.708-26.646c7.581-7.468,16.65-13.275,27.211-17.425   c10.56-4.147,22.214-6.223,34.962-6.223c6.184,0,12.011,0.548,17.481,1.641c5.468,1.095,10.579,2.603,15.331,4.526   c4.752,1.923,9.126,4.225,13.125,6.901c3.997,2.679,7.542,5.64,10.635,8.882l-12.898,17.312c-0.831,1.058-1.81,2.019-2.942,2.885   c-1.131,0.868-2.715,1.302-4.752,1.302c-1.358,0-2.641-0.301-3.847-0.905c-1.208-0.603-2.489-1.338-3.847-2.206   c-1.358-0.866-2.848-1.811-4.469-2.829c-1.623-1.019-3.546-1.96-5.771-2.828c-2.226-0.866-4.828-1.603-7.807-2.207   c-2.981-0.603-6.469-0.905-10.466-0.905c-6.941,0-13.277,1.228-19.009,3.678c-5.733,2.452-10.655,5.96-14.765,10.522   c-4.112,4.564-7.317,10.09-9.617,16.576c-2.302,6.488-3.451,13.767-3.451,21.837c0,8.449,1.149,15.953,3.451,22.516   c2.3,6.562,5.431,12.09,9.391,16.576c3.96,4.489,8.579,7.902,13.86,10.24c5.279,2.339,10.937,3.507,16.972,3.507   c3.469,0,6.637-0.169,9.504-0.509c2.866-0.34,5.524-0.923,7.977-1.754c2.45-0.829,4.789-1.904,7.015-3.225   c2.224-1.318,4.469-2.959,6.732-4.922c0.905-0.753,1.885-1.375,2.942-1.867C524.994,159.855,526.088,159.609,527.22,159.609z"/>
	<path fill="#4D4D4D" d="M653.772,135.84c1.395,3.096,2.733,6.268,4.017,9.514c1.282-3.322,2.639-6.551,4.073-9.685   c1.432-3.133,2.903-6.172,4.413-9.117l42.316-83.364c0.753-1.434,1.527-2.547,2.319-3.339s1.678-1.378,2.659-1.756   c0.979-0.379,2.093-0.567,3.338-0.567c1.244,0,2.696,0,4.356,0h29.191v164.74h-33.717v-94.816c0-4.6,0.226-9.578,0.679-14.936   l-43.674,84.747c-1.357,2.641-3.188,4.639-5.487,5.996c-2.302,1.358-4.922,2.037-7.864,2.037h-5.205   c-2.942,0-5.563-0.679-7.864-2.037c-2.302-1.357-4.129-3.355-5.487-5.996l-43.9-84.859c0.301,2.641,0.527,5.261,0.679,7.863   c0.15,2.603,0.226,4.998,0.226,7.185v94.816h-33.717V37.525h29.191c1.659,0,3.112,0,4.356,0s2.356,0.188,3.337,0.567   c0.979,0.378,1.867,0.964,2.659,1.756s1.564,1.905,2.319,3.339l42.429,83.703C650.924,129.762,652.375,132.744,653.772,135.84z"/>
	<path fill="#FF931E" d="M165.727,2.114c-3.599,0-7.245,0.229-10.909,0.699C121.455,7.092,95.111,30.202,85.1,60.09   c10.858,7.963,18.559,20.19,20.41,34.599c1.845,14.408-2.526,28.183-11.028,38.625c13.247,20.309,34.83,34.3,59.271,37.726   c5.998-17.956,21.812-31.832,41.841-34.381c2.204-0.283,4.393-0.421,6.557-0.421c9.615,0,18.745,2.722,26.546,7.513   c15.941-17.733,24.36-42.049,21.091-67.558C244.297,33.376,207.793,2.11,165.727,2.114"/>
	<path fill="#FF931E" d="M228.697,143.75c-13.115,14.588-31.32,24.721-52.306,27.404c-3.669,0.472-7.315,0.701-10.919,0.701   c-3.963,0-7.876-0.277-11.719-0.816c-2.354,7.048-3.196,14.725-2.188,22.59c3.293,25.689,25.191,44.45,50.426,44.45   c2.162,0,4.352-0.138,6.553-0.421c27.89-3.564,47.611-29.081,44.036-56.979C250.54,164.778,241.372,151.533,228.697,143.75"/>
	<path fill="#FF5504" d="M202.151,136.237c-2.165,0-4.354,0.138-6.557,0.421c-20.029,2.549-35.843,16.425-41.841,34.381   c3.843,0.539,7.756,0.816,11.719,0.816c3.604,0,7.25-0.229,10.919-0.701c20.985-2.684,39.191-12.816,52.306-27.404   C220.896,138.959,211.766,136.237,202.151,136.237"/>
	<path fill="#FF931E" d="M55.057,50.234c-2.156,0-4.339,0.137-6.534,0.418c-27.89,3.579-47.6,29.096-44.024,56.979   c3.288,25.71,25.215,44.459,50.464,44.459c2.149,0,4.324-0.136,6.511-0.415c13.482-1.733,25.053-8.589,33.008-18.361   c-6.774-10.386-11.367-22.423-13.049-35.545c-1.682-13.12-0.271-25.923,3.667-37.679C76.592,53.853,66.148,50.234,55.057,50.234"/>
	<path fill="#FF5504" d="M85.1,60.09c-3.938,11.756-5.349,24.559-3.667,37.679c1.682,13.122,6.275,25.159,13.049,35.545   c8.502-10.442,12.873-24.217,11.028-38.625C103.658,80.28,95.958,68.053,85.1,60.09"/>
</g>
</svg>